<?xml version="1.0" encoding="utf-8" standalone="no"?>
<!DOCTYPE svg PUBLIC "-//W3C//DTD SVG 1.1//EN"
  "http://www.w3.org/Graphics/SVG/1.1/DTD/svg11.dtd">
<svg xmlns:xlink="http://www.w3.org/1999/xlink" width="720pt" height="432pt" viewBox="0 0 720 432" xmlns="http://www.w3.org/2000/svg" version="1.1">
 <metadata>
  <rdf:RDF xmlns:dc="http://purl.org/dc/elements/1.1/" xmlns:cc="http://creativecommons.org/ns#" xmlns:rdf="http://www.w3.org/1999/02/22-rdf-syntax-ns#">
   <cc:Work>
    <dc:type rdf:resource="http://purl.org/dc/dcmitype/StillImage"/>
    <dc:date>2023-10-12T01:31:07.591704</dc:date>
    <dc:format>image/svg+xml</dc:format>
    <dc:creator>
     <cc:Agent>
      <dc:title>Matplotlib v3.7.2, https://matplotlib.org/</dc:title>
     </cc:Agent>
    </dc:creator>
   </cc:Work>
  </rdf:RDF>
 </metadata>
 <defs>
  <style type="text/css">*{stroke-linejoin: round; stroke-linecap: butt}</style>
 </defs>
 <g id="figure_1">
  <g id="patch_1">
   <path d="M 0 432 
L 720 432 
L 720 0 
L 0 0 
z
" style="fill: #0d1117"/>
  </g>
  <g id="axes_1">
   <g id="patch_2">
    <path d="M 90 384.48 
L 648 384.48 
L 648 51.84 
L 90 51.84 
z
" style="fill: #0d1117"/>
   </g>
   <g id="matplotlib.axis_1">
    <g id="xtick_1">
     <g id="line2d_1">
      <defs>
       <path id="mae6316d000" d="M 0 0 
L 0 3.5 
" style="stroke: #ffffff; stroke-width: 0.8"/>
      </defs>
      <g>
       <use xlink:href="#mae6316d000" x="90" y="384.48" style="fill: #ffffff; stroke: #ffffff; stroke-width: 0.8"/>
      </g>
     </g>
     <g id="text_1">
      <!-- 0 -->
      <g style="fill: #ffffff" transform="translate(86.81875 399.078438) scale(0.1 -0.1)">
       <defs>
        <path id="DejaVuSans-30" d="M 2034 4250 
Q 1547 4250 1301 3770 
Q 1056 3291 1056 2328 
Q 1056 1369 1301 889 
Q 1547 409 2034 409 
Q 2525 409 2770 889 
Q 3016 1369 3016 2328 
Q 3016 3291 2770 3770 
Q 2525 4250 2034 4250 
z
M 2034 4750 
Q 2819 4750 3233 4129 
Q 3647 3509 3647 2328 
Q 3647 1150 3233 529 
Q 2819 -91 2034 -91 
Q 1250 -91 836 529 
Q 422 1150 422 2328 
Q 422 3509 836 4129 
Q 1250 4750 2034 4750 
z
" transform="scale(0.015625)"/>
       </defs>
       <use xlink:href="#DejaVuSans-30"/>
      </g>
     </g>
    </g>
    <g id="xtick_2">
     <g id="line2d_2">
      <g>
       <use xlink:href="#mae6316d000" x="201.6" y="384.48" style="fill: #ffffff; stroke: #ffffff; stroke-width: 0.8"/>
      </g>
     </g>
     <g id="text_2">
      <!-- 20 -->
      <g style="fill: #ffffff" transform="translate(195.2375 399.078438) scale(0.1 -0.1)">
       <defs>
        <path id="DejaVuSans-32" d="M 1228 531 
L 3431 531 
L 3431 0 
L 469 0 
L 469 531 
Q 828 903 1448 1529 
Q 2069 2156 2228 2338 
Q 2531 2678 2651 2914 
Q 2772 3150 2772 3378 
Q 2772 3750 2511 3984 
Q 2250 4219 1831 4219 
Q 1534 4219 1204 4116 
Q 875 4013 500 3803 
L 500 4441 
Q 881 4594 1212 4672 
Q 1544 4750 1819 4750 
Q 2544 4750 2975 4387 
Q 3406 4025 3406 3419 
Q 3406 3131 3298 2873 
Q 3191 2616 2906 2266 
Q 2828 2175 2409 1742 
Q 1991 1309 1228 531 
z
" transform="scale(0.015625)"/>
       </defs>
       <use xlink:href="#DejaVuSans-32"/>
       <use xlink:href="#DejaVuSans-30" x="63.623047"/>
      </g>
     </g>
    </g>
    <g id="xtick_3">
     <g id="line2d_3">
      <g>
       <use xlink:href="#mae6316d000" x="313.2" y="384.48" style="fill: #ffffff; stroke: #ffffff; stroke-width: 0.8"/>
      </g>
     </g>
     <g id="text_3">
      <!-- 40 -->
      <g style="fill: #ffffff" transform="translate(306.8375 399.078438) scale(0.1 -0.1)">
       <defs>
        <path id="DejaVuSans-34" d="M 2419 4116 
L 825 1625 
L 2419 1625 
L 2419 4116 
z
M 2253 4666 
L 3047 4666 
L 3047 1625 
L 3713 1625 
L 3713 1100 
L 3047 1100 
L 3047 0 
L 2419 0 
L 2419 1100 
L 313 1100 
L 313 1709 
L 2253 4666 
z
" transform="scale(0.015625)"/>
       </defs>
       <use xlink:href="#DejaVuSans-34"/>
       <use xlink:href="#DejaVuSans-30" x="63.623047"/>
      </g>
     </g>
    </g>
    <g id="xtick_4">
     <g id="line2d_4">
      <g>
       <use xlink:href="#mae6316d000" x="424.8" y="384.48" style="fill: #ffffff; stroke: #ffffff; stroke-width: 0.8"/>
      </g>
     </g>
     <g id="text_4">
      <!-- 60 -->
      <g style="fill: #ffffff" transform="translate(418.4375 399.078438) scale(0.1 -0.1)">
       <defs>
        <path id="DejaVuSans-36" d="M 2113 2584 
Q 1688 2584 1439 2293 
Q 1191 2003 1191 1497 
Q 1191 994 1439 701 
Q 1688 409 2113 409 
Q 2538 409 2786 701 
Q 3034 994 3034 1497 
Q 3034 2003 2786 2293 
Q 2538 2584 2113 2584 
z
M 3366 4563 
L 3366 3988 
Q 3128 4100 2886 4159 
Q 2644 4219 2406 4219 
Q 1781 4219 1451 3797 
Q 1122 3375 1075 2522 
Q 1259 2794 1537 2939 
Q 1816 3084 2150 3084 
Q 2853 3084 3261 2657 
Q 3669 2231 3669 1497 
Q 3669 778 3244 343 
Q 2819 -91 2113 -91 
Q 1303 -91 875 529 
Q 447 1150 447 2328 
Q 447 3434 972 4092 
Q 1497 4750 2381 4750 
Q 2619 4750 2861 4703 
Q 3103 4656 3366 4563 
z
" transform="scale(0.015625)"/>
       </defs>
       <use xlink:href="#DejaVuSans-36"/>
       <use xlink:href="#DejaVuSans-30" x="63.623047"/>
      </g>
     </g>
    </g>
    <g id="xtick_5">
     <g id="line2d_5">
      <g>
       <use xlink:href="#mae6316d000" x="536.4" y="384.48" style="fill: #ffffff; stroke: #ffffff; stroke-width: 0.8"/>
      </g>
     </g>
     <g id="text_5">
      <!-- 80 -->
      <g style="fill: #ffffff" transform="translate(530.0375 399.078438) scale(0.1 -0.1)">
       <defs>
        <path id="DejaVuSans-38" d="M 2034 2216 
Q 1584 2216 1326 1975 
Q 1069 1734 1069 1313 
Q 1069 891 1326 650 
Q 1584 409 2034 409 
Q 2484 409 2743 651 
Q 3003 894 3003 1313 
Q 3003 1734 2745 1975 
Q 2488 2216 2034 2216 
z
M 1403 2484 
Q 997 2584 770 2862 
Q 544 3141 544 3541 
Q 544 4100 942 4425 
Q 1341 4750 2034 4750 
Q 2731 4750 3128 4425 
Q 3525 4100 3525 3541 
Q 3525 3141 3298 2862 
Q 3072 2584 2669 2484 
Q 3125 2378 3379 2068 
Q 3634 1759 3634 1313 
Q 3634 634 3220 271 
Q 2806 -91 2034 -91 
Q 1263 -91 848 271 
Q 434 634 434 1313 
Q 434 1759 690 2068 
Q 947 2378 1403 2484 
z
M 1172 3481 
Q 1172 3119 1398 2916 
Q 1625 2713 2034 2713 
Q 2441 2713 2670 2916 
Q 2900 3119 2900 3481 
Q 2900 3844 2670 4047 
Q 2441 4250 2034 4250 
Q 1625 4250 1398 4047 
Q 1172 3844 1172 3481 
z
" transform="scale(0.015625)"/>
       </defs>
       <use xlink:href="#DejaVuSans-38"/>
       <use xlink:href="#DejaVuSans-30" x="63.623047"/>
      </g>
     </g>
    </g>
    <g id="xtick_6">
     <g id="line2d_6">
      <g>
       <use xlink:href="#mae6316d000" x="648" y="384.48" style="fill: #ffffff; stroke: #ffffff; stroke-width: 0.8"/>
      </g>
     </g>
     <g id="text_6">
      <!-- 100 -->
      <g style="fill: #ffffff" transform="translate(638.45625 399.078438) scale(0.1 -0.1)">
       <defs>
        <path id="DejaVuSans-31" d="M 794 531 
L 1825 531 
L 1825 4091 
L 703 3866 
L 703 4441 
L 1819 4666 
L 2450 4666 
L 2450 531 
L 3481 531 
L 3481 0 
L 794 0 
L 794 531 
z
" transform="scale(0.015625)"/>
       </defs>
       <use xlink:href="#DejaVuSans-31"/>
       <use xlink:href="#DejaVuSans-30" x="63.623047"/>
       <use xlink:href="#DejaVuSans-30" x="127.246094"/>
      </g>
     </g>
    </g>
    <g id="text_7">
     <!-- level -->
     <g style="fill: #ffffff" transform="translate(357.109375 412.756563) scale(0.1 -0.1)">
      <defs>
       <path id="DejaVuSans-6c" d="M 603 4863 
L 1178 4863 
L 1178 0 
L 603 0 
L 603 4863 
z
" transform="scale(0.015625)"/>
       <path id="DejaVuSans-65" d="M 3597 1894 
L 3597 1613 
L 953 1613 
Q 991 1019 1311 708 
Q 1631 397 2203 397 
Q 2534 397 2845 478 
Q 3156 559 3463 722 
L 3463 178 
Q 3153 47 2828 -22 
Q 2503 -91 2169 -91 
Q 1331 -91 842 396 
Q 353 884 353 1716 
Q 353 2575 817 3079 
Q 1281 3584 2069 3584 
Q 2775 3584 3186 3129 
Q 3597 2675 3597 1894 
z
M 3022 2063 
Q 3016 2534 2758 2815 
Q 2500 3097 2075 3097 
Q 1594 3097 1305 2825 
Q 1016 2553 972 2059 
L 3022 2063 
z
" transform="scale(0.015625)"/>
       <path id="DejaVuSans-76" d="M 191 3500 
L 800 3500 
L 1894 563 
L 2988 3500 
L 3597 3500 
L 2284 0 
L 1503 0 
L 191 3500 
z
" transform="scale(0.015625)"/>
      </defs>
      <use xlink:href="#DejaVuSans-6c"/>
      <use xlink:href="#DejaVuSans-65" x="27.783203"/>
      <use xlink:href="#DejaVuSans-76" x="89.306641"/>
      <use xlink:href="#DejaVuSans-65" x="148.486328"/>
      <use xlink:href="#DejaVuSans-6c" x="210.009766"/>
     </g>
    </g>
   </g>
   <g id="matplotlib.axis_2">
    <g id="ytick_1">
     <g id="line2d_7">
      <defs>
       <path id="mcef478764b" d="M 0 0 
L -3.5 0 
" style="stroke: #ffffff; stroke-width: 0.8"/>
      </defs>
      <g>
       <use xlink:href="#mcef478764b" x="90" y="384.48" style="fill: #ffffff; stroke: #ffffff; stroke-width: 0.8"/>
      </g>
     </g>
     <g id="text_8">
      <!-- 0 -->
      <g style="fill: #ffffff" transform="translate(76.6375 388.279219) scale(0.1 -0.1)">
       <use xlink:href="#DejaVuSans-30"/>
      </g>
     </g>
    </g>
    <g id="ytick_2">
     <g id="line2d_8">
      <g>
       <use xlink:href="#mcef478764b" x="90" y="346.464" style="fill: #ffffff; stroke: #ffffff; stroke-width: 0.8"/>
      </g>
     </g>
     <g id="text_9">
      <!-- 200000 -->
      <g style="fill: #ffffff" transform="translate(44.825 350.263219) scale(0.1 -0.1)">
       <use xlink:href="#DejaVuSans-32"/>
       <use xlink:href="#DejaVuSans-30" x="63.623047"/>
       <use xlink:href="#DejaVuSans-30" x="127.246094"/>
       <use xlink:href="#DejaVuSans-30" x="190.869141"/>
       <use xlink:href="#DejaVuSans-30" x="254.492188"/>
       <use xlink:href="#DejaVuSans-30" x="318.115234"/>
      </g>
     </g>
    </g>
    <g id="ytick_3">
     <g id="line2d_9">
      <g>
       <use xlink:href="#mcef478764b" x="90" y="308.448" style="fill: #ffffff; stroke: #ffffff; stroke-width: 0.8"/>
      </g>
     </g>
     <g id="text_10">
      <!-- 400000 -->
      <g style="fill: #ffffff" transform="translate(44.825 312.247219) scale(0.1 -0.1)">
       <use xlink:href="#DejaVuSans-34"/>
       <use xlink:href="#DejaVuSans-30" x="63.623047"/>
       <use xlink:href="#DejaVuSans-30" x="127.246094"/>
       <use xlink:href="#DejaVuSans-30" x="190.869141"/>
       <use xlink:href="#DejaVuSans-30" x="254.492188"/>
       <use xlink:href="#DejaVuSans-30" x="318.115234"/>
      </g>
     </g>
    </g>
    <g id="ytick_4">
     <g id="line2d_10">
      <g>
       <use xlink:href="#mcef478764b" x="90" y="270.432" style="fill: #ffffff; stroke: #ffffff; stroke-width: 0.8"/>
      </g>
     </g>
     <g id="text_11">
      <!-- 600000 -->
      <g style="fill: #ffffff" transform="translate(44.825 274.231219) scale(0.1 -0.1)">
       <use xlink:href="#DejaVuSans-36"/>
       <use xlink:href="#DejaVuSans-30" x="63.623047"/>
       <use xlink:href="#DejaVuSans-30" x="127.246094"/>
       <use xlink:href="#DejaVuSans-30" x="190.869141"/>
       <use xlink:href="#DejaVuSans-30" x="254.492188"/>
       <use xlink:href="#DejaVuSans-30" x="318.115234"/>
      </g>
     </g>
    </g>
    <g id="ytick_5">
     <g id="line2d_11">
      <g>
       <use xlink:href="#mcef478764b" x="90" y="232.416" style="fill: #ffffff; stroke: #ffffff; stroke-width: 0.8"/>
      </g>
     </g>
     <g id="text_12">
      <!-- 800000 -->
      <g style="fill: #ffffff" transform="translate(44.825 236.215219) scale(0.1 -0.1)">
       <use xlink:href="#DejaVuSans-38"/>
       <use xlink:href="#DejaVuSans-30" x="63.623047"/>
       <use xlink:href="#DejaVuSans-30" x="127.246094"/>
       <use xlink:href="#DejaVuSans-30" x="190.869141"/>
       <use xlink:href="#DejaVuSans-30" x="254.492188"/>
       <use xlink:href="#DejaVuSans-30" x="318.115234"/>
      </g>
     </g>
    </g>
    <g id="ytick_6">
     <g id="line2d_12">
      <g>
       <use xlink:href="#mcef478764b" x="90" y="194.4" style="fill: #ffffff; stroke: #ffffff; stroke-width: 0.8"/>
      </g>
     </g>
     <g id="text_13">
      <!-- 1000000 -->
      <g style="fill: #ffffff" transform="translate(38.4625 198.199219) scale(0.1 -0.1)">
       <use xlink:href="#DejaVuSans-31"/>
       <use xlink:href="#DejaVuSans-30" x="63.623047"/>
       <use xlink:href="#DejaVuSans-30" x="127.246094"/>
       <use xlink:href="#DejaVuSans-30" x="190.869141"/>
       <use xlink:href="#DejaVuSans-30" x="254.492188"/>
       <use xlink:href="#DejaVuSans-30" x="318.115234"/>
       <use xlink:href="#DejaVuSans-30" x="381.738281"/>
      </g>
     </g>
    </g>
    <g id="ytick_7">
     <g id="line2d_13">
      <g>
       <use xlink:href="#mcef478764b" x="90" y="156.384" style="fill: #ffffff; stroke: #ffffff; stroke-width: 0.8"/>
      </g>
     </g>
     <g id="text_14">
      <!-- 1200000 -->
      <g style="fill: #ffffff" transform="translate(38.4625 160.183219) scale(0.1 -0.1)">
       <use xlink:href="#DejaVuSans-31"/>
       <use xlink:href="#DejaVuSans-32" x="63.623047"/>
       <use xlink:href="#DejaVuSans-30" x="127.246094"/>
       <use xlink:href="#DejaVuSans-30" x="190.869141"/>
       <use xlink:href="#DejaVuSans-30" x="254.492188"/>
       <use xlink:href="#DejaVuSans-30" x="318.115234"/>
       <use xlink:href="#DejaVuSans-30" x="381.738281"/>
      </g>
     </g>
    </g>
    <g id="ytick_8">
     <g id="line2d_14">
      <g>
       <use xlink:href="#mcef478764b" x="90" y="118.368" style="fill: #ffffff; stroke: #ffffff; stroke-width: 0.8"/>
      </g>
     </g>
     <g id="text_15">
      <!-- 1400000 -->
      <g style="fill: #ffffff" transform="translate(38.4625 122.167219) scale(0.1 -0.1)">
       <use xlink:href="#DejaVuSans-31"/>
       <use xlink:href="#DejaVuSans-34" x="63.623047"/>
       <use xlink:href="#DejaVuSans-30" x="127.246094"/>
       <use xlink:href="#DejaVuSans-30" x="190.869141"/>
       <use xlink:href="#DejaVuSans-30" x="254.492188"/>
       <use xlink:href="#DejaVuSans-30" x="318.115234"/>
       <use xlink:href="#DejaVuSans-30" x="381.738281"/>
      </g>
     </g>
    </g>
    <g id="ytick_9">
     <g id="line2d_15">
      <g>
       <use xlink:href="#mcef478764b" x="90" y="80.352" style="fill: #ffffff; stroke: #ffffff; stroke-width: 0.8"/>
      </g>
     </g>
     <g id="text_16">
      <!-- 1600000 -->
      <g style="fill: #ffffff" transform="translate(38.4625 84.151219) scale(0.1 -0.1)">
       <use xlink:href="#DejaVuSans-31"/>
       <use xlink:href="#DejaVuSans-36" x="63.623047"/>
       <use xlink:href="#DejaVuSans-30" x="127.246094"/>
       <use xlink:href="#DejaVuSans-30" x="190.869141"/>
       <use xlink:href="#DejaVuSans-30" x="254.492188"/>
       <use xlink:href="#DejaVuSans-30" x="318.115234"/>
       <use xlink:href="#DejaVuSans-30" x="381.738281"/>
      </g>
     </g>
    </g>
    <g id="text_17">
     <!-- experience -->
     <g style="fill: #ffffff" transform="translate(32.382812 245.874844) rotate(-90) scale(0.1 -0.1)">
      <defs>
       <path id="DejaVuSans-78" d="M 3513 3500 
L 2247 1797 
L 3578 0 
L 2900 0 
L 1881 1375 
L 863 0 
L 184 0 
L 1544 1831 
L 300 3500 
L 978 3500 
L 1906 2253 
L 2834 3500 
L 3513 3500 
z
" transform="scale(0.015625)"/>
       <path id="DejaVuSans-70" d="M 1159 525 
L 1159 -1331 
L 581 -1331 
L 581 3500 
L 1159 3500 
L 1159 2969 
Q 1341 3281 1617 3432 
Q 1894 3584 2278 3584 
Q 2916 3584 3314 3078 
Q 3713 2572 3713 1747 
Q 3713 922 3314 415 
Q 2916 -91 2278 -91 
Q 1894 -91 1617 61 
Q 1341 213 1159 525 
z
M 3116 1747 
Q 3116 2381 2855 2742 
Q 2594 3103 2138 3103 
Q 1681 3103 1420 2742 
Q 1159 2381 1159 1747 
Q 1159 1113 1420 752 
Q 1681 391 2138 391 
Q 2594 391 2855 752 
Q 3116 1113 3116 1747 
z
" transform="scale(0.015625)"/>
       <path id="DejaVuSans-72" d="M 2631 2963 
Q 2534 3019 2420 3045 
Q 2306 3072 2169 3072 
Q 1681 3072 1420 2755 
Q 1159 2438 1159 1844 
L 1159 0 
L 581 0 
L 581 3500 
L 1159 3500 
L 1159 2956 
Q 1341 3275 1631 3429 
Q 1922 3584 2338 3584 
Q 2397 3584 2469 3576 
Q 2541 3569 2628 3553 
L 2631 2963 
z
" transform="scale(0.015625)"/>
       <path id="DejaVuSans-69" d="M 603 3500 
L 1178 3500 
L 1178 0 
L 603 0 
L 603 3500 
z
M 603 4863 
L 1178 4863 
L 1178 4134 
L 603 4134 
L 603 4863 
z
" transform="scale(0.015625)"/>
       <path id="DejaVuSans-6e" d="M 3513 2113 
L 3513 0 
L 2938 0 
L 2938 2094 
Q 2938 2591 2744 2837 
Q 2550 3084 2163 3084 
Q 1697 3084 1428 2787 
Q 1159 2491 1159 1978 
L 1159 0 
L 581 0 
L 581 3500 
L 1159 3500 
L 1159 2956 
Q 1366 3272 1645 3428 
Q 1925 3584 2291 3584 
Q 2894 3584 3203 3211 
Q 3513 2838 3513 2113 
z
" transform="scale(0.015625)"/>
       <path id="DejaVuSans-63" d="M 3122 3366 
L 3122 2828 
Q 2878 2963 2633 3030 
Q 2388 3097 2138 3097 
Q 1578 3097 1268 2742 
Q 959 2388 959 1747 
Q 959 1106 1268 751 
Q 1578 397 2138 397 
Q 2388 397 2633 464 
Q 2878 531 3122 666 
L 3122 134 
Q 2881 22 2623 -34 
Q 2366 -91 2075 -91 
Q 1284 -91 818 406 
Q 353 903 353 1747 
Q 353 2603 823 3093 
Q 1294 3584 2113 3584 
Q 2378 3584 2631 3529 
Q 2884 3475 3122 3366 
z
" transform="scale(0.015625)"/>
      </defs>
      <use xlink:href="#DejaVuSans-65"/>
      <use xlink:href="#DejaVuSans-78" x="59.773438"/>
      <use xlink:href="#DejaVuSans-70" x="118.953125"/>
      <use xlink:href="#DejaVuSans-65" x="182.429688"/>
      <use xlink:href="#DejaVuSans-72" x="243.953125"/>
      <use xlink:href="#DejaVuSans-69" x="285.066406"/>
      <use xlink:href="#DejaVuSans-65" x="312.849609"/>
      <use xlink:href="#DejaVuSans-6e" x="374.373047"/>
      <use xlink:href="#DejaVuSans-63" x="437.751953"/>
      <use xlink:href="#DejaVuSans-65" x="492.732422"/>
     </g>
    </g>
   </g>
   <g id="line2d_16">
    <path d="M 90 384.48 
L 95.58 384.477149 
L 101.16 384.470116 
L 106.74 384.45681 
L 112.32 384.434951 
L 117.9 384.402828 
L 123.48 384.358919 
L 129.06 384.300945 
L 134.64 384.227954 
L 140.22 384.137856 
L 145.8 384.0297 
L 151.38 383.901967 
L 156.96 383.753514 
L 162.54 383.583012 
L 168.12 383.389511 
L 173.7 383.17206 
L 179.28 382.929898 
L 184.86 382.662075 
L 190.44 382.368021 
L 196.02 382.046976 
L 201.6 381.698749 
L 207.18 381.322771 
L 212.76 380.918471 
L 218.34 380.486039 
L 223.92 380.025095 
L 229.5 379.535639 
L 235.08 379.017671 
L 240.66 378.471571 
L 246.24 377.897149 
L 251.82 377.294976 
L 257.4 376.665621 
L 262.98 376.009275 
L 268.56 375.326698 
L 274.14 374.61846 
L 279.72 373.885511 
L 285.3 373.128612 
L 290.88 372.348714 
L 296.46 371.546767 
L 302.04 370.7241 
L 307.62 369.881856 
L 313.2 369.021554 
L 318.78 368.144145 
L 324.36 367.251719 
L 329.94 366.345228 
L 335.52 365.426951 
L 341.1 364.49841 
L 346.68 363.561316 
L 352.26 362.617949 
L 357.84 361.67021 
L 363.42 360.72 
L 369 359.517934 
L 374.58 358.287926 
L 380.16 357.030547 
L 385.74 355.746557 
L 391.32 354.436716 
L 396.9 353.101784 
L 402.48 351.742712 
L 408.06 350.36007 
L 413.64 348.955188 
L 419.22 347.528448 
L 424.8 346.081369 
L 430.38 344.614902 
L 435.96 343.129997 
L 441.54 341.627795 
L 447.12 340.109436 
L 452.7 338.57644 
L 458.28 337.029759 
L 463.86 335.470913 
L 469.44 333.651468 
L 475.02 331.930863 
L 480.6 330.054774 
L 486.18 328.148271 
L 491.76 326.359809 
L 497.34 324.400654 
L 502.92 322.412988 
L 508.5 320.56465 
L 514.08 318.528893 
L 519.66 316.467095 
L 525.24 314.567245 
L 530.82 312.46249 
L 536.4 310.334164 
L 541.98 308.392307 
L 547.56 306.226725 
L 553.14 304.040045 
L 558.72 302.066634 
L 564.3 299.848971 
L 569.88 297.61325 
L 575.46 295.619691 
L 581.04 293.35983 
L 586.62 291.084952 
L 592.2 289.08303 
L 597.78 286.791425 
L 603.36 284.488606 
L 608.94 282.491245 
L 614.52 280.179302 
L 620.1 277.859946 
L 625.68 275.881023 
L 631.26 273.560907 
L 636.84 271.975069 
L 642.42 270.432 
" clip-path="url(#p567d012923)" style="fill: none; stroke: #1f77b4; stroke-width: 1.5; stroke-linecap: square"/>
   </g>
   <g id="line2d_17">
    <path d="M 90 384.48 
L 95.58 384.47886 
L 101.16 384.476008 
L 106.74 384.470306 
L 112.32 384.460992 
L 117.9 384.447306 
L 123.48 384.427918 
L 129.06 384.402257 
L 134.64 384.369183 
L 140.22 384.327936 
L 145.8 384.277755 
L 151.38 384.217309 
L 156.96 384.146029 
L 162.54 384.062774 
L 168.12 383.966784 
L 173.7 383.857298 
L 179.28 383.732986 
L 184.86 383.593277 
L 190.44 383.437031 
L 196.02 383.263488 
L 201.6 383.071887 
L 207.18 382.860899 
L 212.76 382.629951 
L 218.34 382.377905 
L 223.92 382.104 
L 229.5 381.807475 
L 235.08 381.487 
L 240.66 381.142005 
L 246.24 380.771349 
L 251.82 380.374272 
L 257.4 379.950013 
L 262.98 379.497243 
L 268.56 379.01539 
L 274.14 378.503315 
L 279.72 377.960256 
L 285.3 377.385454 
L 290.88 376.777578 
L 296.46 376.136058 
L 302.04 375.459754 
L 307.62 374.747904 
L 313.2 373.999749 
L 318.78 373.213958 
L 324.36 372.389962 
L 329.94 371.526618 
L 335.52 370.623168 
L 341.1 369.678851 
L 346.68 368.692335 
L 352.26 367.663052 
L 357.84 366.58986 
L 363.42 365.472 
L 369 364.30871 
L 374.58 363.098661 
L 380.16 361.841282 
L 385.74 360.535432 
L 391.32 359.180352 
L 396.9 357.775281 
L 402.48 356.318888 
L 408.06 354.810603 
L 413.64 353.249286 
L 419.22 351.634176 
L 424.8 349.964513 
L 430.38 348.238967 
L 435.96 346.456967 
L 441.54 344.617373 
L 447.12 342.719424 
L 452.7 340.76236 
L 458.28 338.744851 
L 463.86 336.666326 
L 469.44 334.525645 
L 475.02 332.322048 
L 480.6 330.054774 
L 486.18 327.722492 
L 491.76 325.324633 
L 497.34 322.860056 
L 502.92 320.328 
L 508.5 317.727706 
L 514.08 315.057842 
L 519.66 312.317839 
L 525.24 309.506556 
L 530.82 306.623232 
L 536.4 303.667108 
L 541.98 300.636852 
L 547.56 297.531896 
L 553.14 294.351097 
L 558.72 291.093696 
L 564.3 287.758932 
L 569.88 284.345476 
L 575.46 280.852756 
L 581.04 277.279632 
L 586.62 273.625344 
L 592.2 269.889132 
L 597.78 266.069664 
L 603.36 262.166371 
L 608.94 258.178113 
L 614.52 254.104128 
L 620.1 249.943657 
L 625.68 245.695369 
L 631.26 241.358694 
L 636.84 236.932491 
L 642.42 232.416 
" clip-path="url(#p567d012923)" style="fill: none; stroke: #ff7f0e; stroke-width: 1.5; stroke-linecap: square"/>
   </g>
   <g id="line2d_18">
    <path d="M 90 384.48 
L 95.58 384.478479 
L 101.16 384.474868 
L 106.74 384.467835 
L 112.32 384.45624 
L 117.9 384.438943 
L 123.48 384.414803 
L 129.06 384.382679 
L 134.64 384.341432 
L 140.22 384.28992 
L 145.8 384.227004 
L 151.38 384.151542 
L 156.96 384.062394 
L 162.54 383.95842 
L 168.12 383.83848 
L 173.7 383.701432 
L 179.28 383.546137 
L 184.86 383.371453 
L 190.44 383.176241 
L 196.02 382.95936 
L 201.6 382.719669 
L 207.18 382.456028 
L 212.76 382.167297 
L 218.34 381.852334 
L 223.92 381.51 
L 229.5 381.139154 
L 235.08 380.738655 
L 240.66 380.307364 
L 246.24 379.844139 
L 251.82 379.34784 
L 257.4 378.817327 
L 262.98 378.251459 
L 268.56 377.649095 
L 274.14 377.009096 
L 279.72 376.33032 
L 285.3 375.611628 
L 290.88 374.851878 
L 296.46 374.04993 
L 302.04 373.204644 
L 307.62 372.31488 
L 313.2 371.379496 
L 318.78 370.397353 
L 324.36 369.367309 
L 329.94 368.288225 
L 335.52 367.15896 
L 341.1 365.978373 
L 346.68 364.745324 
L 352.26 363.458673 
L 357.84 362.117278 
L 363.42 360.72 
L 369 359.265698 
L 374.58 357.753231 
L 380.16 356.18146 
L 385.74 354.549243 
L 391.32 352.85544 
L 396.9 351.098911 
L 402.48 349.278515 
L 408.06 347.393111 
L 413.64 345.44156 
L 419.22 343.42272 
L 424.8 341.335452 
L 430.38 339.178614 
L 435.96 336.951066 
L 441.54 334.651668 
L 447.12 332.27928 
L 452.7 329.83276 
L 458.28 327.310969 
L 463.86 324.712765 
L 469.44 322.037009 
L 475.02 319.28256 
L 480.6 316.448277 
L 486.18 313.53302 
L 491.76 310.535649 
L 497.34 307.455022 
L 502.92 304.29 
L 508.5 301.039442 
L 514.08 297.702207 
L 519.66 294.277156 
L 525.24 290.763147 
L 530.82 287.15904 
L 536.4 283.463695 
L 541.98 279.675971 
L 547.56 275.794727 
L 553.14 271.818824 
L 558.72 267.74712 
L 564.3 263.578476 
L 569.88 259.31175 
L 575.46 254.945802 
L 581.04 250.479492 
L 586.62 245.91168 
L 592.2 241.241224 
L 597.78 236.466985 
L 603.36 231.587821 
L 608.94 226.602593 
L 614.52 221.51016 
L 620.1 216.309381 
L 625.68 210.999116 
L 631.26 205.578225 
L 636.84 200.045566 
L 642.42 194.4 
" clip-path="url(#p567d012923)" style="fill: none; stroke: #2ca02c; stroke-width: 1.5; stroke-linecap: square"/>
   </g>
   <g id="line2d_19">
    <path d="M 90 384.48 
L 95.58 384.478289 
L 101.16 384.469165 
L 106.74 384.461752 
L 112.32 384.454339 
L 117.9 384.445976 
L 123.48 384.435141 
L 129.06 384.420315 
L 134.64 384.400356 
L 140.22 384.373555 
L 145.8 384.338961 
L 151.38 384.295052 
L 156.96 384.240309 
L 162.54 384.173591 
L 168.12 384.093187 
L 173.7 383.998147 
L 179.28 383.88695 
L 184.86 383.758076 
L 190.44 383.610384 
L 196.02 383.442163 
L 201.6 383.252463 
L 207.18 383.039764 
L 212.76 382.802544 
L 218.34 382.539663 
L 223.92 382.249411 
L 229.5 381.930837 
L 235.08 381.58242 
L 240.66 381.202641 
L 246.24 380.790357 
L 251.82 380.343859 
L 257.4 379.862196 
L 262.98 379.343848 
L 268.56 378.787294 
L 274.14 378.191393 
L 279.72 377.554435 
L 285.3 376.875469 
L 290.88 376.152975 
L 296.46 375.385432 
L 302.04 374.5717 
L 307.62 373.710067 
L 313.2 372.799584 
L 318.78 371.83873 
L 324.36 370.825983 
L 329.94 369.760205 
L 335.52 368.639683 
L 341.1 367.463468 
L 346.68 366.230039 
L 352.26 364.937875 
L 357.84 363.585836 
L 363.42 362.172211 
L 369 360.69605 
L 374.58 359.155832 
L 380.16 357.550036 
L 385.74 355.877522 
L 391.32 354.136579 
L 396.9 352.326257 
L 402.48 350.445036 
L 408.06 348.491393 
L 413.64 346.46419 
L 419.22 344.361715 
L 424.8 342.183018 
L 430.38 339.926579 
L 435.96 337.590876 
L 441.54 335.174769 
L 447.12 332.676547 
L 452.7 330.095261 
L 458.28 327.429389 
L 463.86 324.677411 
L 469.44 321.838186 
L 475.02 318.910003 
L 480.6 315.891913 
L 486.18 312.782394 
L 491.76 309.579926 
L 497.34 306.283369 
L 502.92 302.891011 
L 508.5 299.401903 
L 514.08 295.814523 
L 519.66 292.127351 
L 525.24 288.339247 
L 530.82 284.448499 
L 536.4 280.454158 
L 541.98 276.354703 
L 547.56 272.148612 
L 553.14 267.834747 
L 558.72 263.411395 
L 564.3 258.877607 
L 569.88 254.231862 
L 575.46 249.472639 
L 581.04 244.598797 
L 586.62 239.608627 
L 592.2 234.501178 
L 597.78 229.274928 
L 603.36 223.928358 
L 608.94 218.460326 
L 614.52 212.869123 
L 620.1 207.153798 
L 625.68 201.312829 
L 631.26 195.344698 
L 636.84 189.248262 
L 642.42 183.021811 
" clip-path="url(#p567d012923)" style="fill: none; stroke: #d62728; stroke-width: 1.5; stroke-linecap: square"/>
   </g>
   <g id="line2d_20">
    <path d="M 90 384.48 
L 95.58 384.478099 
L 101.16 384.473727 
L 106.74 384.464794 
L 112.32 384.450348 
L 117.9 384.428678 
L 123.48 384.398646 
L 129.06 384.358349 
L 134.64 384.306837 
L 140.22 384.2424 
L 145.8 384.163897 
L 151.38 384.069427 
L 156.96 383.95804 
L 162.54 383.828026 
L 168.12 383.678243 
L 173.7 383.50679 
L 179.28 383.312719 
L 184.86 383.094317 
L 190.44 382.850444 
L 196.02 382.5792 
L 201.6 382.279634 
L 207.18 381.950035 
L 212.76 381.589263 
L 218.34 381.195418 
L 223.92 380.767548 
L 229.5 380.303942 
L 235.08 379.803462 
L 240.66 379.264205 
L 246.24 378.685221 
L 251.82 378.0648 
L 257.4 377.401801 
L 262.98 376.694323 
L 268.56 375.941416 
L 274.14 375.14137 
L 279.72 374.293043 
L 285.3 373.394534 
L 290.88 372.444895 
L 296.46 371.442413 
L 302.04 370.385948 
L 307.62 369.2736 
L 313.2 368.104418 
L 318.78 366.876691 
L 324.36 365.589279 
L 329.94 364.240282 
L 335.52 362.828748 
L 341.1 361.352966 
L 346.68 359.811798 
L 352.26 358.203341 
L 357.84 356.526645 
L 363.42 354.78 
L 369 352.962265 
L 374.58 351.071539 
L 380.16 349.106872 
L 385.74 347.066554 
L 391.32 344.949443 
L 396.9 342.753638 
L 402.48 340.478191 
L 408.06 338.121389 
L 413.64 335.682092 
L 419.22 333.1584 
L 424.8 330.549362 
L 430.38 327.853267 
L 435.96 325.068975 
L 441.54 322.194586 
L 447.12 319.229148 
L 452.7 316.17095 
L 458.28 313.018854 
L 463.86 309.770957 
L 469.44 306.426309 
L 475.02 302.9832 
L 480.6 299.440489 
L 486.18 295.796275 
L 491.76 292.049608 
L 497.34 288.198778 
L 502.92 284.242643 
L 508.5 280.179302 
L 514.08 276.007807 
L 519.66 271.726445 
L 525.24 267.334076 
L 530.82 262.8288 
L 536.4 258.209666 
L 541.98 253.474963 
L 547.56 248.623551 
L 553.14 243.65353 
L 558.72 238.563948 
L 564.3 233.353094 
L 569.88 228.01983 
L 575.46 222.562253 
L 581.04 216.979413 
L 586.62 211.2696 
L 592.2 205.431673 
L 597.78 199.463731 
L 603.36 193.364824 
L 608.94 187.133242 
L 614.52 180.767843 
L 620.1 174.266726 
L 625.68 167.628943 
L 631.26 160.852781 
L 636.84 153.9371 
L 642.42 146.88 
" clip-path="url(#p567d012923)" style="fill: none; stroke: #9467bd; stroke-width: 1.5; stroke-linecap: square"/>
   </g>
   <g id="line2d_21">
    <path d="M 90 384.48 
L 95.58 384.47924 
L 101.16 384.477529 
L 106.74 384.473917 
L 112.32 384.467645 
L 117.9 384.458711 
L 123.48 384.446166 
L 129.06 384.427538 
L 134.64 384.405299 
L 140.22 384.377357 
L 145.8 384.33839 
L 151.38 384.296193 
L 156.96 384.246202 
L 162.54 384.177583 
L 168.12 384.108013 
L 173.7 384.012973 
L 179.28 383.901016 
L 184.86 383.770621 
L 190.44 383.619698 
L 196.02 383.445965 
L 201.6 383.247901 
L 207.18 383.022847 
L 212.76 382.76871 
L 218.34 382.48302 
L 223.92 382.163495 
L 229.5 381.807475 
L 235.08 381.412109 
L 240.66 380.975115 
L 246.24 380.493262 
L 251.82 379.963699 
L 257.4 379.383765 
L 262.98 378.749848 
L 268.56 378.059098 
L 274.14 377.308092 
L 279.72 376.493409 
L 285.3 375.611628 
L 290.88 374.851878 
L 296.46 373.841412 
L 302.04 372.97921 
L 307.62 371.828275 
L 313.2 370.855636 
L 318.78 369.552447 
L 324.36 368.460628 
L 329.94 366.99302 
L 335.52 365.773277 
L 341.1 364.128324 
L 346.68 362.771914 
L 352.26 360.936121 
L 357.84 359.433919 
L 363.42 357.3936 
L 369 355.735722 
L 374.58 353.477002 
L 380.16 351.653754 
L 385.74 349.161805 
L 391.32 347.163114 
L 396.9 344.422731 
L 402.48 342.238332 
L 408.06 339.234117 
L 413.64 336.853175 
L 419.22 333.568973 
L 424.8 330.980844 
L 430.38 327.400307 
L 435.96 324.593585 
L 441.54 320.699796 
L 447.12 317.663078 
L 452.7 313.43874 
L 458.28 310.160431 
L 463.86 305.587296 
L 469.44 302.05542 
L 475.02 297.11543 
L 480.6 293.317632 
L 486.18 287.992161 
L 491.76 283.915705 
L 497.34 278.185553 
L 502.92 273.817895 
L 508.5 267.663295 
L 514.08 262.991128 
L 519.66 256.392121 
L 525.24 251.402141 
L 530.82 244.337818 
L 536.4 239.016528 
L 541.98 231.46617 
L 547.56 225.799505 
L 553.14 217.741634 
L 558.72 211.715338 
L 564.3 203.127713 
L 569.88 196.72772 
L 575.46 187.588103 
L 581.04 180.799396 
L 586.62 171.084787 
L 592.2 163.89235 
L 597.78 153.57975 
L 603.36 145.968376 
L 608.94 135.033834 
L 614.52 126.987748 
L 620.1 115.407124 
L 625.68 106.910738 
L 631.26 94.659132 
L 636.84 85.696289 
L 642.42 72.7488 
" clip-path="url(#p567d012923)" style="fill: none; stroke: #8c564b; stroke-width: 1.5; stroke-linecap: square"/>
   </g>
   <g id="patch_3">
    <path d="M 90 384.48 
L 90 51.84 
" style="fill: none; stroke: #ffffff; stroke-width: 0.8; stroke-linejoin: miter; stroke-linecap: square"/>
   </g>
   <g id="patch_4">
    <path d="M 648 384.48 
L 648 51.84 
" style="fill: none; stroke: #ffffff; stroke-width: 0.8; stroke-linejoin: miter; stroke-linecap: square"/>
   </g>
   <g id="patch_5">
    <path d="M 90 384.48 
L 648 384.48 
" style="fill: none; stroke: #ffffff; stroke-width: 0.8; stroke-linejoin: miter; stroke-linecap: square"/>
   </g>
   <g id="patch_6">
    <path d="M 90 51.84 
L 648 51.84 
" style="fill: none; stroke: #ffffff; stroke-width: 0.8; stroke-linejoin: miter; stroke-linecap: square"/>
   </g>
   <g id="text_18">
    <!-- All Growth Rates -->
    <g style="fill: #ffffff" transform="translate(319.154063 45.84) scale(0.12 -0.12)">
     <defs>
      <path id="DejaVuSans-41" d="M 2188 4044 
L 1331 1722 
L 3047 1722 
L 2188 4044 
z
M 1831 4666 
L 2547 4666 
L 4325 0 
L 3669 0 
L 3244 1197 
L 1141 1197 
L 716 0 
L 50 0 
L 1831 4666 
z
" transform="scale(0.015625)"/>
      <path id="DejaVuSans-20" transform="scale(0.015625)"/>
      <path id="DejaVuSans-47" d="M 3809 666 
L 3809 1919 
L 2778 1919 
L 2778 2438 
L 4434 2438 
L 4434 434 
Q 4069 175 3628 42 
Q 3188 -91 2688 -91 
Q 1594 -91 976 548 
Q 359 1188 359 2328 
Q 359 3472 976 4111 
Q 1594 4750 2688 4750 
Q 3144 4750 3555 4637 
Q 3966 4525 4313 4306 
L 4313 3634 
Q 3963 3931 3569 4081 
Q 3175 4231 2741 4231 
Q 1884 4231 1454 3753 
Q 1025 3275 1025 2328 
Q 1025 1384 1454 906 
Q 1884 428 2741 428 
Q 3075 428 3337 486 
Q 3600 544 3809 666 
z
" transform="scale(0.015625)"/>
      <path id="DejaVuSans-6f" d="M 1959 3097 
Q 1497 3097 1228 2736 
Q 959 2375 959 1747 
Q 959 1119 1226 758 
Q 1494 397 1959 397 
Q 2419 397 2687 759 
Q 2956 1122 2956 1747 
Q 2956 2369 2687 2733 
Q 2419 3097 1959 3097 
z
M 1959 3584 
Q 2709 3584 3137 3096 
Q 3566 2609 3566 1747 
Q 3566 888 3137 398 
Q 2709 -91 1959 -91 
Q 1206 -91 779 398 
Q 353 888 353 1747 
Q 353 2609 779 3096 
Q 1206 3584 1959 3584 
z
" transform="scale(0.015625)"/>
      <path id="DejaVuSans-77" d="M 269 3500 
L 844 3500 
L 1563 769 
L 2278 3500 
L 2956 3500 
L 3675 769 
L 4391 3500 
L 4966 3500 
L 4050 0 
L 3372 0 
L 2619 2869 
L 1863 0 
L 1184 0 
L 269 3500 
z
" transform="scale(0.015625)"/>
      <path id="DejaVuSans-74" d="M 1172 4494 
L 1172 3500 
L 2356 3500 
L 2356 3053 
L 1172 3053 
L 1172 1153 
Q 1172 725 1289 603 
Q 1406 481 1766 481 
L 2356 481 
L 2356 0 
L 1766 0 
Q 1100 0 847 248 
Q 594 497 594 1153 
L 594 3053 
L 172 3053 
L 172 3500 
L 594 3500 
L 594 4494 
L 1172 4494 
z
" transform="scale(0.015625)"/>
      <path id="DejaVuSans-68" d="M 3513 2113 
L 3513 0 
L 2938 0 
L 2938 2094 
Q 2938 2591 2744 2837 
Q 2550 3084 2163 3084 
Q 1697 3084 1428 2787 
Q 1159 2491 1159 1978 
L 1159 0 
L 581 0 
L 581 4863 
L 1159 4863 
L 1159 2956 
Q 1366 3272 1645 3428 
Q 1925 3584 2291 3584 
Q 2894 3584 3203 3211 
Q 3513 2838 3513 2113 
z
" transform="scale(0.015625)"/>
      <path id="DejaVuSans-52" d="M 2841 2188 
Q 3044 2119 3236 1894 
Q 3428 1669 3622 1275 
L 4263 0 
L 3584 0 
L 2988 1197 
Q 2756 1666 2539 1819 
Q 2322 1972 1947 1972 
L 1259 1972 
L 1259 0 
L 628 0 
L 628 4666 
L 2053 4666 
Q 2853 4666 3247 4331 
Q 3641 3997 3641 3322 
Q 3641 2881 3436 2590 
Q 3231 2300 2841 2188 
z
M 1259 4147 
L 1259 2491 
L 2053 2491 
Q 2509 2491 2742 2702 
Q 2975 2913 2975 3322 
Q 2975 3731 2742 3939 
Q 2509 4147 2053 4147 
L 1259 4147 
z
" transform="scale(0.015625)"/>
      <path id="DejaVuSans-61" d="M 2194 1759 
Q 1497 1759 1228 1600 
Q 959 1441 959 1056 
Q 959 750 1161 570 
Q 1363 391 1709 391 
Q 2188 391 2477 730 
Q 2766 1069 2766 1631 
L 2766 1759 
L 2194 1759 
z
M 3341 1997 
L 3341 0 
L 2766 0 
L 2766 531 
Q 2569 213 2275 61 
Q 1981 -91 1556 -91 
Q 1019 -91 701 211 
Q 384 513 384 1019 
Q 384 1609 779 1909 
Q 1175 2209 1959 2209 
L 2766 2209 
L 2766 2266 
Q 2766 2663 2505 2880 
Q 2244 3097 1772 3097 
Q 1472 3097 1187 3025 
Q 903 2953 641 2809 
L 641 3341 
Q 956 3463 1253 3523 
Q 1550 3584 1831 3584 
Q 2591 3584 2966 3190 
Q 3341 2797 3341 1997 
z
" transform="scale(0.015625)"/>
      <path id="DejaVuSans-73" d="M 2834 3397 
L 2834 2853 
Q 2591 2978 2328 3040 
Q 2066 3103 1784 3103 
Q 1356 3103 1142 2972 
Q 928 2841 928 2578 
Q 928 2378 1081 2264 
Q 1234 2150 1697 2047 
L 1894 2003 
Q 2506 1872 2764 1633 
Q 3022 1394 3022 966 
Q 3022 478 2636 193 
Q 2250 -91 1575 -91 
Q 1294 -91 989 -36 
Q 684 19 347 128 
L 347 722 
Q 666 556 975 473 
Q 1284 391 1588 391 
Q 1994 391 2212 530 
Q 2431 669 2431 922 
Q 2431 1156 2273 1281 
Q 2116 1406 1581 1522 
L 1381 1569 
Q 847 1681 609 1914 
Q 372 2147 372 2553 
Q 372 3047 722 3315 
Q 1072 3584 1716 3584 
Q 2034 3584 2315 3537 
Q 2597 3491 2834 3397 
z
" transform="scale(0.015625)"/>
     </defs>
     <use xlink:href="#DejaVuSans-41"/>
     <use xlink:href="#DejaVuSans-6c" x="68.408203"/>
     <use xlink:href="#DejaVuSans-6c" x="96.191406"/>
     <use xlink:href="#DejaVuSans-20" x="123.974609"/>
     <use xlink:href="#DejaVuSans-47" x="155.761719"/>
     <use xlink:href="#DejaVuSans-72" x="233.251953"/>
     <use xlink:href="#DejaVuSans-6f" x="272.115234"/>
     <use xlink:href="#DejaVuSans-77" x="333.296875"/>
     <use xlink:href="#DejaVuSans-74" x="415.083984"/>
     <use xlink:href="#DejaVuSans-68" x="454.292969"/>
     <use xlink:href="#DejaVuSans-20" x="517.671875"/>
     <use xlink:href="#DejaVuSans-52" x="549.458984"/>
     <use xlink:href="#DejaVuSans-61" x="616.691406"/>
     <use xlink:href="#DejaVuSans-74" x="677.970703"/>
     <use xlink:href="#DejaVuSans-65" x="717.179688"/>
     <use xlink:href="#DejaVuSans-73" x="778.703125"/>
    </g>
   </g>
   <g id="legend_1">
    <g id="patch_7">
     <path d="M 97 147.90875 
L 261.057813 147.90875 
Q 263.057813 147.90875 263.057813 145.90875 
L 263.057813 58.84 
Q 263.057813 56.84 261.057813 56.84 
L 97 56.84 
Q 95 56.84 95 58.84 
L 95 145.90875 
Q 95 147.90875 97 147.90875 
z
" style="fill: #ffffff; opacity: 0.8; stroke: #cccccc; stroke-linejoin: miter"/>
    </g>
    <g id="line2d_22">
     <path d="M 99 64.938437 
L 109 64.938437 
L 119 64.938437 
" style="fill: none; stroke: #1f77b4; stroke-width: 1.5; stroke-linecap: square"/>
    </g>
    <g id="text_19">
     <!-- Erratic Growth Rate -->
     <g transform="translate(127 68.438437) scale(0.1 -0.1)">
      <defs>
       <path id="DejaVuSans-45" d="M 628 4666 
L 3578 4666 
L 3578 4134 
L 1259 4134 
L 1259 2753 
L 3481 2753 
L 3481 2222 
L 1259 2222 
L 1259 531 
L 3634 531 
L 3634 0 
L 628 0 
L 628 4666 
z
" transform="scale(0.015625)"/>
      </defs>
      <use xlink:href="#DejaVuSans-45"/>
      <use xlink:href="#DejaVuSans-72" x="63.183594"/>
      <use xlink:href="#DejaVuSans-72" x="102.546875"/>
      <use xlink:href="#DejaVuSans-61" x="143.660156"/>
      <use xlink:href="#DejaVuSans-74" x="204.939453"/>
      <use xlink:href="#DejaVuSans-69" x="244.148438"/>
      <use xlink:href="#DejaVuSans-63" x="271.931641"/>
      <use xlink:href="#DejaVuSans-20" x="326.912109"/>
      <use xlink:href="#DejaVuSans-47" x="358.699219"/>
      <use xlink:href="#DejaVuSans-72" x="436.189453"/>
      <use xlink:href="#DejaVuSans-6f" x="475.052734"/>
      <use xlink:href="#DejaVuSans-77" x="536.234375"/>
      <use xlink:href="#DejaVuSans-74" x="618.021484"/>
      <use xlink:href="#DejaVuSans-68" x="657.230469"/>
      <use xlink:href="#DejaVuSans-20" x="720.609375"/>
      <use xlink:href="#DejaVuSans-52" x="752.396484"/>
      <use xlink:href="#DejaVuSans-61" x="819.628906"/>
      <use xlink:href="#DejaVuSans-74" x="880.908203"/>
      <use xlink:href="#DejaVuSans-65" x="920.117188"/>
     </g>
    </g>
    <g id="line2d_23">
     <path d="M 99 79.616562 
L 109 79.616562 
L 119 79.616562 
" style="fill: none; stroke: #ff7f0e; stroke-width: 1.5; stroke-linecap: square"/>
    </g>
    <g id="text_20">
     <!-- Fast Growth Rate -->
     <g transform="translate(127 83.116562) scale(0.1 -0.1)">
      <defs>
       <path id="DejaVuSans-46" d="M 628 4666 
L 3309 4666 
L 3309 4134 
L 1259 4134 
L 1259 2759 
L 3109 2759 
L 3109 2228 
L 1259 2228 
L 1259 0 
L 628 0 
L 628 4666 
z
" transform="scale(0.015625)"/>
      </defs>
      <use xlink:href="#DejaVuSans-46"/>
      <use xlink:href="#DejaVuSans-61" x="48.394531"/>
      <use xlink:href="#DejaVuSans-73" x="109.673828"/>
      <use xlink:href="#DejaVuSans-74" x="161.773438"/>
      <use xlink:href="#DejaVuSans-20" x="200.982422"/>
      <use xlink:href="#DejaVuSans-47" x="232.769531"/>
      <use xlink:href="#DejaVuSans-72" x="310.259766"/>
      <use xlink:href="#DejaVuSans-6f" x="349.123047"/>
      <use xlink:href="#DejaVuSans-77" x="410.304688"/>
      <use xlink:href="#DejaVuSans-74" x="492.091797"/>
      <use xlink:href="#DejaVuSans-68" x="531.300781"/>
      <use xlink:href="#DejaVuSans-20" x="594.679688"/>
      <use xlink:href="#DejaVuSans-52" x="626.466797"/>
      <use xlink:href="#DejaVuSans-61" x="693.699219"/>
      <use xlink:href="#DejaVuSans-74" x="754.978516"/>
      <use xlink:href="#DejaVuSans-65" x="794.1875"/>
     </g>
    </g>
    <g id="line2d_24">
     <path d="M 99 94.294687 
L 109 94.294687 
L 119 94.294687 
" style="fill: none; stroke: #2ca02c; stroke-width: 1.5; stroke-linecap: square"/>
    </g>
    <g id="text_21">
     <!-- Medium Fast Growth Rate -->
     <g transform="translate(127 97.794687) scale(0.1 -0.1)">
      <defs>
       <path id="DejaVuSans-4d" d="M 628 4666 
L 1569 4666 
L 2759 1491 
L 3956 4666 
L 4897 4666 
L 4897 0 
L 4281 0 
L 4281 4097 
L 3078 897 
L 2444 897 
L 1241 4097 
L 1241 0 
L 628 0 
L 628 4666 
z
" transform="scale(0.015625)"/>
       <path id="DejaVuSans-64" d="M 2906 2969 
L 2906 4863 
L 3481 4863 
L 3481 0 
L 2906 0 
L 2906 525 
Q 2725 213 2448 61 
Q 2172 -91 1784 -91 
Q 1150 -91 751 415 
Q 353 922 353 1747 
Q 353 2572 751 3078 
Q 1150 3584 1784 3584 
Q 2172 3584 2448 3432 
Q 2725 3281 2906 2969 
z
M 947 1747 
Q 947 1113 1208 752 
Q 1469 391 1925 391 
Q 2381 391 2643 752 
Q 2906 1113 2906 1747 
Q 2906 2381 2643 2742 
Q 2381 3103 1925 3103 
Q 1469 3103 1208 2742 
Q 947 2381 947 1747 
z
" transform="scale(0.015625)"/>
       <path id="DejaVuSans-75" d="M 544 1381 
L 544 3500 
L 1119 3500 
L 1119 1403 
Q 1119 906 1312 657 
Q 1506 409 1894 409 
Q 2359 409 2629 706 
Q 2900 1003 2900 1516 
L 2900 3500 
L 3475 3500 
L 3475 0 
L 2900 0 
L 2900 538 
Q 2691 219 2414 64 
Q 2138 -91 1772 -91 
Q 1169 -91 856 284 
Q 544 659 544 1381 
z
M 1991 3584 
L 1991 3584 
z
" transform="scale(0.015625)"/>
       <path id="DejaVuSans-6d" d="M 3328 2828 
Q 3544 3216 3844 3400 
Q 4144 3584 4550 3584 
Q 5097 3584 5394 3201 
Q 5691 2819 5691 2113 
L 5691 0 
L 5113 0 
L 5113 2094 
Q 5113 2597 4934 2840 
Q 4756 3084 4391 3084 
Q 3944 3084 3684 2787 
Q 3425 2491 3425 1978 
L 3425 0 
L 2847 0 
L 2847 2094 
Q 2847 2600 2669 2842 
Q 2491 3084 2119 3084 
Q 1678 3084 1418 2786 
Q 1159 2488 1159 1978 
L 1159 0 
L 581 0 
L 581 3500 
L 1159 3500 
L 1159 2956 
Q 1356 3278 1631 3431 
Q 1906 3584 2284 3584 
Q 2666 3584 2933 3390 
Q 3200 3197 3328 2828 
z
" transform="scale(0.015625)"/>
      </defs>
      <use xlink:href="#DejaVuSans-4d"/>
      <use xlink:href="#DejaVuSans-65" x="86.279297"/>
      <use xlink:href="#DejaVuSans-64" x="147.802734"/>
      <use xlink:href="#DejaVuSans-69" x="211.279297"/>
      <use xlink:href="#DejaVuSans-75" x="239.0625"/>
      <use xlink:href="#DejaVuSans-6d" x="302.441406"/>
      <use xlink:href="#DejaVuSans-20" x="399.853516"/>
      <use xlink:href="#DejaVuSans-46" x="431.640625"/>
      <use xlink:href="#DejaVuSans-61" x="480.035156"/>
      <use xlink:href="#DejaVuSans-73" x="541.314453"/>
      <use xlink:href="#DejaVuSans-74" x="593.414062"/>
      <use xlink:href="#DejaVuSans-20" x="632.623047"/>
      <use xlink:href="#DejaVuSans-47" x="664.410156"/>
      <use xlink:href="#DejaVuSans-72" x="741.900391"/>
      <use xlink:href="#DejaVuSans-6f" x="780.763672"/>
      <use xlink:href="#DejaVuSans-77" x="841.945312"/>
      <use xlink:href="#DejaVuSans-74" x="923.732422"/>
      <use xlink:href="#DejaVuSans-68" x="962.941406"/>
      <use xlink:href="#DejaVuSans-20" x="1026.320312"/>
      <use xlink:href="#DejaVuSans-52" x="1058.107422"/>
      <use xlink:href="#DejaVuSans-61" x="1125.339844"/>
      <use xlink:href="#DejaVuSans-74" x="1186.619141"/>
      <use xlink:href="#DejaVuSans-65" x="1225.828125"/>
     </g>
    </g>
    <g id="line2d_25">
     <path d="M 99 108.972812 
L 109 108.972812 
L 119 108.972812 
" style="fill: none; stroke: #d62728; stroke-width: 1.5; stroke-linecap: square"/>
    </g>
    <g id="text_22">
     <!-- Medium Slow Growth Rate -->
     <g transform="translate(127 112.472812) scale(0.1 -0.1)">
      <defs>
       <path id="DejaVuSans-53" d="M 3425 4513 
L 3425 3897 
Q 3066 4069 2747 4153 
Q 2428 4238 2131 4238 
Q 1616 4238 1336 4038 
Q 1056 3838 1056 3469 
Q 1056 3159 1242 3001 
Q 1428 2844 1947 2747 
L 2328 2669 
Q 3034 2534 3370 2195 
Q 3706 1856 3706 1288 
Q 3706 609 3251 259 
Q 2797 -91 1919 -91 
Q 1588 -91 1214 -16 
Q 841 59 441 206 
L 441 856 
Q 825 641 1194 531 
Q 1563 422 1919 422 
Q 2459 422 2753 634 
Q 3047 847 3047 1241 
Q 3047 1584 2836 1778 
Q 2625 1972 2144 2069 
L 1759 2144 
Q 1053 2284 737 2584 
Q 422 2884 422 3419 
Q 422 4038 858 4394 
Q 1294 4750 2059 4750 
Q 2388 4750 2728 4690 
Q 3069 4631 3425 4513 
z
" transform="scale(0.015625)"/>
      </defs>
      <use xlink:href="#DejaVuSans-4d"/>
      <use xlink:href="#DejaVuSans-65" x="86.279297"/>
      <use xlink:href="#DejaVuSans-64" x="147.802734"/>
      <use xlink:href="#DejaVuSans-69" x="211.279297"/>
      <use xlink:href="#DejaVuSans-75" x="239.0625"/>
      <use xlink:href="#DejaVuSans-6d" x="302.441406"/>
      <use xlink:href="#DejaVuSans-20" x="399.853516"/>
      <use xlink:href="#DejaVuSans-53" x="431.640625"/>
      <use xlink:href="#DejaVuSans-6c" x="495.117188"/>
      <use xlink:href="#DejaVuSans-6f" x="522.900391"/>
      <use xlink:href="#DejaVuSans-77" x="584.082031"/>
      <use xlink:href="#DejaVuSans-20" x="665.869141"/>
      <use xlink:href="#DejaVuSans-47" x="697.65625"/>
      <use xlink:href="#DejaVuSans-72" x="775.146484"/>
      <use xlink:href="#DejaVuSans-6f" x="814.009766"/>
      <use xlink:href="#DejaVuSans-77" x="875.191406"/>
      <use xlink:href="#DejaVuSans-74" x="956.978516"/>
      <use xlink:href="#DejaVuSans-68" x="996.1875"/>
      <use xlink:href="#DejaVuSans-20" x="1059.566406"/>
      <use xlink:href="#DejaVuSans-52" x="1091.353516"/>
      <use xlink:href="#DejaVuSans-61" x="1158.585938"/>
      <use xlink:href="#DejaVuSans-74" x="1219.865234"/>
      <use xlink:href="#DejaVuSans-65" x="1259.074219"/>
     </g>
    </g>
    <g id="line2d_26">
     <path d="M 99 123.650937 
L 109 123.650937 
L 119 123.650937 
" style="fill: none; stroke: #9467bd; stroke-width: 1.5; stroke-linecap: square"/>
    </g>
    <g id="text_23">
     <!-- Slow Growth Rate -->
     <g transform="translate(127 127.150937) scale(0.1 -0.1)">
      <use xlink:href="#DejaVuSans-53"/>
      <use xlink:href="#DejaVuSans-6c" x="63.476562"/>
      <use xlink:href="#DejaVuSans-6f" x="91.259766"/>
      <use xlink:href="#DejaVuSans-77" x="152.441406"/>
      <use xlink:href="#DejaVuSans-20" x="234.228516"/>
      <use xlink:href="#DejaVuSans-47" x="266.015625"/>
      <use xlink:href="#DejaVuSans-72" x="343.505859"/>
      <use xlink:href="#DejaVuSans-6f" x="382.369141"/>
      <use xlink:href="#DejaVuSans-77" x="443.550781"/>
      <use xlink:href="#DejaVuSans-74" x="525.337891"/>
      <use xlink:href="#DejaVuSans-68" x="564.546875"/>
      <use xlink:href="#DejaVuSans-20" x="627.925781"/>
      <use xlink:href="#DejaVuSans-52" x="659.712891"/>
      <use xlink:href="#DejaVuSans-61" x="726.945312"/>
      <use xlink:href="#DejaVuSans-74" x="788.224609"/>
      <use xlink:href="#DejaVuSans-65" x="827.433594"/>
     </g>
    </g>
    <g id="line2d_27">
     <path d="M 99 138.329062 
L 109 138.329062 
L 119 138.329062 
" style="fill: none; stroke: #8c564b; stroke-width: 1.5; stroke-linecap: square"/>
    </g>
    <g id="text_24">
     <!-- Fluctuating Growth Rate -->
     <g transform="translate(127 141.829062) scale(0.1 -0.1)">
      <defs>
       <path id="DejaVuSans-67" d="M 2906 1791 
Q 2906 2416 2648 2759 
Q 2391 3103 1925 3103 
Q 1463 3103 1205 2759 
Q 947 2416 947 1791 
Q 947 1169 1205 825 
Q 1463 481 1925 481 
Q 2391 481 2648 825 
Q 2906 1169 2906 1791 
z
M 3481 434 
Q 3481 -459 3084 -895 
Q 2688 -1331 1869 -1331 
Q 1566 -1331 1297 -1286 
Q 1028 -1241 775 -1147 
L 775 -588 
Q 1028 -725 1275 -790 
Q 1522 -856 1778 -856 
Q 2344 -856 2625 -561 
Q 2906 -266 2906 331 
L 2906 616 
Q 2728 306 2450 153 
Q 2172 0 1784 0 
Q 1141 0 747 490 
Q 353 981 353 1791 
Q 353 2603 747 3093 
Q 1141 3584 1784 3584 
Q 2172 3584 2450 3431 
Q 2728 3278 2906 2969 
L 2906 3500 
L 3481 3500 
L 3481 434 
z
" transform="scale(0.015625)"/>
      </defs>
      <use xlink:href="#DejaVuSans-46"/>
      <use xlink:href="#DejaVuSans-6c" x="57.519531"/>
      <use xlink:href="#DejaVuSans-75" x="85.302734"/>
      <use xlink:href="#DejaVuSans-63" x="148.681641"/>
      <use xlink:href="#DejaVuSans-74" x="203.662109"/>
      <use xlink:href="#DejaVuSans-75" x="242.871094"/>
      <use xlink:href="#DejaVuSans-61" x="306.25"/>
      <use xlink:href="#DejaVuSans-74" x="367.529297"/>
      <use xlink:href="#DejaVuSans-69" x="406.738281"/>
      <use xlink:href="#DejaVuSans-6e" x="434.521484"/>
      <use xlink:href="#DejaVuSans-67" x="497.900391"/>
      <use xlink:href="#DejaVuSans-20" x="561.376953"/>
      <use xlink:href="#DejaVuSans-47" x="593.164062"/>
      <use xlink:href="#DejaVuSans-72" x="670.654297"/>
      <use xlink:href="#DejaVuSans-6f" x="709.517578"/>
      <use xlink:href="#DejaVuSans-77" x="770.699219"/>
      <use xlink:href="#DejaVuSans-74" x="852.486328"/>
      <use xlink:href="#DejaVuSans-68" x="891.695312"/>
      <use xlink:href="#DejaVuSans-20" x="955.074219"/>
      <use xlink:href="#DejaVuSans-52" x="986.861328"/>
      <use xlink:href="#DejaVuSans-61" x="1054.09375"/>
      <use xlink:href="#DejaVuSans-74" x="1115.373047"/>
      <use xlink:href="#DejaVuSans-65" x="1154.582031"/>
     </g>
    </g>
   </g>
  </g>
 </g>
 <defs>
  <clipPath id="p567d012923">
   <rect x="90" y="51.84" width="558" height="332.64"/>
  </clipPath>
 </defs>
</svg>
